# xmcd
#
# Track frame offsets: 
#        150
#        9164
#        17962
#        28617
#        39603
#        49867
#        62454
#        71882
#        82577
#        95623
#        108793
#        118809
#        130134
#        139331
#        150973
#
# Disc length: 2161 seconds
#
# Revision: 1
# Processed by: cddbd v1.5.2PL0 Copyright (c) Steve Scherf et al.
# Submitted via: ExactAudioCopy v1.0b6
#
DISCID=ba086f0f
DTITLE=Patsy Cline - Crazy [CD 2)
DYEAR=2007
DGENRE=Blues
TTITLE0=I Fall To Pieces
TTITLE1=I Love You So Much It Hurts
TTITLE2=Crazy
TTITLE3=I Cried All The Way to The Alter
TTITLE4=Pick Me Up On Your Way down
TTITLE5=Fingerprints
TTITLE6=Love Me, Love Me, Honey Do
TTITLE7=Honky Tonk Merry-Go-Round
TTITLE8=If I Could see The World
TTITLE9=Life's Railway To Heaven
TTITLE10=Turn The Cards Slowly
TTITLE11=Cry Not For Me
TTITLE12=Try Again
TTITLE13=I've Loved and Lost Again
TTITLE14=The Heart You Break May Be Your Own
EXTD=
EXTT0=
EXTT1=
EXTT2=
EXTT3=
EXTT4=
EXTT5=
EXTT6=
EXTT7=
EXTT8=
EXTT9=
EXTT10=
EXTT11=
EXTT12=
EXTT13=
EXTT14=
PLAYORDER=
